<?xml version="1.0" encoding="utf-8"?>
<!-- Generator: Adobe Illustrator 23.0.3, SVG Export Plug-In . SVG Version: 6.00 Build 0)  -->
<svg version="1.1" id="Capa_1" xmlns="http://www.w3.org/2000/svg" xmlns:xlink="http://www.w3.org/1999/xlink" x="0px" y="0px"
	 viewBox="0 0 200 200" style="enable-background:new 0 0 200 200;" xml:space="preserve">
<style type="text/css">
	.st0{fill:#9FEAF9;}
</style>
<g transform="translate(0.699997, 0.400002)">
	<path class="st0" d="M73,43.8C47.6,39.2,27.5,44,19.5,57.9c-6,10.4-4.3,24.1,4.1,38.8c0.7,1.2,2.3,1.7,3.6,1c1.2-0.7,1.7-2.3,1-3.6
		C20.5,80.9,19,69,23.9,60.5C30.6,49,48.5,44.7,72,49c1.4,0.3,2.8-0.7,3-2.1C75.3,45.5,74.4,44.1,73,43.8L73,43.8z M36.8,114.5
		c10.3,11.3,23.6,21.9,38.9,30.7c36.9,21.3,76.1,27,95.5,13.8c1.2-0.8,1.5-2.4,0.7-3.6c-0.8-1.2-2.4-1.5-3.6-0.7
		c-17.3,11.8-54.6,6.4-90-14c-14.8-8.5-27.7-18.8-37.6-29.7c-1-1.1-2.6-1.1-3.7-0.2C35.9,111.8,35.8,113.5,36.8,114.5L36.8,114.5z"
		/>
	<path class="st0" d="M165,111.4c16.6-19.7,22.5-39.4,14.5-53.3c-5.9-10.2-18.3-15.6-34.9-15.8c-1.4,0-2.6,1.1-2.6,2.6
		c0,1.4,1.1,2.6,2.6,2.6c14.9,0.2,25.6,4.8,30.4,13.2c6.6,11.5,1.5,29.1-13.9,47.3c-0.9,1.1-0.8,2.7,0.3,3.7
		C162.4,112.6,164.1,112.5,165,111.4L165,111.4z M122.2,44.7c-15.1,3.2-31.1,9.5-46.5,18.4c-38.1,22-62.9,54.4-59.5,77.9
		c0.2,1.4,1.5,2.4,3,2.2c1.4-0.2,2.4-1.5,2.2-3c-3.1-20.9,20.5-51.6,56.9-72.6c14.9-8.6,30.4-14.7,44.9-17.8c1.4-0.3,2.3-1.7,2-3.1
		C125,45.3,123.6,44.4,122.2,44.7L122.2,44.7z"/>
	<path class="st0" d="M60.5,157.3c8.7,24.3,22.9,39.3,39,39.3c11.7,0,22.5-8,30.9-22c0.7-1.2,0.3-2.8-0.9-3.6
		c-1.2-0.7-2.8-0.3-3.6,0.9c-7.6,12.6-16.9,19.4-26.4,19.4c-13.3,0-26-13.3-34-35.8c-0.5-1.4-2-2.1-3.3-1.6
		C60.7,154.5,60,156,60.5,157.3L60.5,157.3z M140,152.6c4.5-14.4,6.9-31,6.9-48.3c0-43.2-15.1-80.4-36.7-90c-1.3-0.6-2.9,0-3.4,1.3
		c-0.6,1.3,0,2.9,1.3,3.4c19.2,8.5,33.6,43.9,33.6,85.2c0,16.8-2.3,32.9-6.7,46.8c-0.4,1.4,0.3,2.8,1.7,3.3
		C138.1,154.7,139.6,153.9,140,152.6L140,152.6z"/>
	<path class="st0" d="M189.1,150c0-6.9-5.6-12.5-12.5-12.5s-12.5,5.6-12.5,12.5s5.6,12.5,12.5,12.5
		C183.6,162.5,189.1,156.9,189.1,150L189.1,150z M183.9,150c0,4-3.3,7.3-7.3,7.3s-7.3-3.3-7.3-7.3s3.3-7.3,7.3-7.3
		C180.7,142.8,183.9,146,183.9,150L183.9,150z"/>
	<path class="st0" d="M22.1,162.5c6.9,0,12.5-5.6,12.5-12.5s-5.6-12.5-12.5-12.5S9.6,143.1,9.6,150S15.2,162.5,22.1,162.5
		L22.1,162.5z M22.1,157.3c-4,0-7.3-3.3-7.3-7.3s3.3-7.3,7.3-7.3s7.3,3.3,7.3,7.3C29.4,154,26.1,157.3,22.1,157.3L22.1,157.3z"/>
	<path class="st0" d="M99.5,27c6.9,0,12.5-5.6,12.5-12.5S106.4,2,99.5,2S87,7.6,87,14.5S92.6,27,99.5,27L99.5,27z M99.5,21.8
		c-4,0-7.3-3.3-7.3-7.3s3.3-7.3,7.3-7.3s7.3,3.3,7.3,7.3S103.5,21.8,99.5,21.8L99.5,21.8z"/>
	<path class="st0" d="M101.4,113.1c-4.9,1.1-9.7-2-10.7-6.9c-1.1-4.9,2-9.7,6.9-10.7c4.9-1.1,9.7,2,10.7,6.9
		C109.4,107.2,106.3,112,101.4,113.1z"/>
</g>
</svg>
